# xmcd
#
# Track frame offsets:
#	183
#	14283
#	28893
#	41670
#	53553
#	72408
#	89033
#	110740
#	125645
#	141190
#	155393
#	171438
#	186303
#	207125
#	222350
#	234718
#
# Disc length: 3342
#
# Revision: 1
# Processed by: cddbd v1.5.1PL0 Copyright (c) Steve Scherf et al.
# Submitted via: ExactAudioCopy v0.90b4
# Normalized: r0:DSETVAR1,TDELIM( - )
#
DISCID=f50d0c10
DTITLE=Various Artist - Die Stars der deutschen Countryszene
DYEAR=1991
DGENRE=Country
TTITLE0=Tom Astor - Take It Easy - nimm's leicht
TTITLE1=Jonny Hill - Wär ich jetzt nur auf einer Insel
TTITLE2=Truck Stop - Lass doch mal den Cowboy ran
TTITLE3=Linda Feller - Es gibt Männer, soviel Männer
TTITLE4=Sammy's Saloon - Sie kocht den besten Kaffee von ganz Texas(Truck Driving Man)
TTITLE5=Frank Baum and Country Green - Wo bist Du
TTITLE6=Jonny Hill - Ruf Teddybär Eins-Vier
TTITLE7=Hanna and Daana - Hört er Country, wird er wach
TTITLE8=Truck Stop - Alles Bingo
TTITLE9=Jonny Hill - Deine Liebe ist so zärtlich
TTITLE10=Tom Astor - Und ich seh die Trucks vorüberzieh'n
TTITLE11=Linda Feller - Ich habe Dich an meiner Seite
TTITLE12=Gunter Gabriel - Er ist ein Kerl (der 30-Tonner Diesel)
TTITLE13=Frank Baum and Country Green - Wie eine Feder im Wind
TTITLE14=Jonny Hill - Ich bin für die Liebe
TTITLE15=Hanna and Daana - Eerist so wie Du
EXTD=
EXTT0=
EXTT1=
EXTT2=
EXTT3=
EXTT4=
EXTT5=
EXTT6=
EXTT7=
EXTT8=
EXTT9=
EXTT10=
EXTT11=
EXTT12=
EXTT13=
EXTT14=
EXTT15=
PLAYORDER=
